<svg width="74" height="74" viewBox="0 0 74 74" fill="none" xmlns="http://www.w3.org/2000/svg">
<rect x="1.5" y="1.5" width="71" height="71" fill="#111111" stroke="white" stroke-width="3"/>
<path d="M21.6244 21.7109C21.5658 22.5898 21.3227 23.3662 20.8949 24.04C20.473 24.7139 19.8813 25.2383 19.1195 25.6133C18.3578 25.9883 17.4643 26.1758 16.4389 26.1758C15.3432 26.1758 14.3939 25.9268 13.5912 25.4287C12.7885 24.9248 12.1732 24.21 11.7455 23.2842C11.3236 22.3525 11.1127 21.2568 11.1127 19.9971V19.2148C11.1127 17.9609 11.3324 16.8682 11.7719 15.9365C12.2113 14.999 12.8324 14.2783 13.6352 13.7744C14.4379 13.2705 15.3754 13.0186 16.4477 13.0186C17.4965 13.0186 18.3959 13.2119 19.1459 13.5986C19.8959 13.9854 20.476 14.5215 20.8861 15.207C21.3021 15.8867 21.5512 16.6748 21.6332 17.5713H18.8822C18.8295 16.7979 18.6156 16.2236 18.2406 15.8486C17.8715 15.4678 17.2738 15.2773 16.4477 15.2773C15.5863 15.2773 14.9477 15.5938 14.5316 16.2266C14.1156 16.8594 13.9076 17.8496 13.9076 19.1973V19.9971C13.9076 20.9053 13.9926 21.6465 14.1625 22.2207C14.3324 22.7891 14.602 23.2139 14.9711 23.4951C15.3402 23.7764 15.8295 23.917 16.4389 23.917C17.2299 23.917 17.8188 23.7383 18.2055 23.3809C18.598 23.0176 18.8207 22.4609 18.8734 21.7109H21.6244ZM40.7441 26L40.1025 25.2617C39.6104 25.5781 39.1006 25.8125 38.5732 25.9648C38.0459 26.1113 37.4688 26.1846 36.8418 26.1846C35.998 26.1846 35.2598 26.0322 34.627 25.7275C34 25.417 33.5166 24.9863 33.1768 24.4355C32.8369 23.8848 32.667 23.2578 32.667 22.5547C32.667 22.0801 32.7578 21.6553 32.9395 21.2803C33.127 20.9053 33.3818 20.5654 33.7041 20.2607C34.0322 19.9502 34.4512 19.6133 34.9609 19.25C34.5625 18.7051 34.2637 18.2129 34.0645 17.7734C33.8711 17.3281 33.7744 16.877 33.7744 16.4199C33.7744 15.752 33.918 15.1602 34.2051 14.6445C34.498 14.1289 34.9111 13.7305 35.4443 13.4492C35.9775 13.1621 36.5957 13.0186 37.2988 13.0186C37.9492 13.0186 38.5234 13.1562 39.0215 13.4316C39.5195 13.7012 39.9033 14.0674 40.1729 14.5303C40.4482 14.9932 40.5859 15.4971 40.5859 16.042C40.5859 17.1025 40.0146 18.043 38.8721 18.8633L38.0723 19.4346L40.208 21.9043C40.5537 21.2305 40.7266 20.4893 40.7266 19.6807H42.9678C42.9678 21.374 42.584 22.7363 41.8164 23.7676L43.7412 26H40.7441ZM37.29 15.1543C36.9209 15.1543 36.6338 15.2715 36.4287 15.5059C36.2236 15.7344 36.1211 16.0273 36.1211 16.3848C36.1211 16.625 36.1826 16.874 36.3057 17.1318C36.4346 17.3838 36.6221 17.6709 36.8682 17.9932L37.5186 17.5713C37.8584 17.3545 38.0898 17.1406 38.2129 16.9297C38.3359 16.7188 38.3975 16.4814 38.3975 16.2178C38.3975 16.042 38.3535 15.8721 38.2656 15.708C38.1777 15.5439 38.0488 15.4121 37.8789 15.3125C37.709 15.207 37.5127 15.1543 37.29 15.1543ZM36.9912 24.04C37.5654 24.04 38.1162 23.8877 38.6436 23.583L36.1914 20.7705L36.0332 20.8848C35.7578 21.1309 35.5703 21.374 35.4707 21.6143C35.3711 21.8545 35.3213 22.1123 35.3213 22.3877C35.3213 22.7041 35.3916 22.9883 35.5322 23.2402C35.6729 23.4922 35.8691 23.6885 36.1211 23.8291C36.3789 23.9697 36.6689 24.04 36.9912 24.04ZM63.2477 23.7764V26H56.8141H54.9508V13.2031H57.7105V23.7764H63.2477Z" fill="white"/>
<path d="M17.4541 46.2109C17.4033 46.7812 17.2431 47.2852 16.9736 47.7227C16.708 48.1602 16.333 48.502 15.8486 48.748C15.3642 48.9941 14.7822 49.1172 14.1025 49.1172C13.4033 49.1172 12.7939 48.9531 12.2744 48.625C11.7548 48.293 11.3545 47.8223 11.0732 47.2129C10.792 46.6035 10.6513 45.8906 10.6513 45.0742V44.4004C10.6513 43.584 10.7939 42.8711 11.0791 42.2617C11.3681 41.6523 11.7763 41.1816 12.3037 40.8496C12.8349 40.5176 13.4541 40.3516 14.1611 40.3516C14.8291 40.3516 15.3994 40.4766 15.872 40.7266C16.3447 40.9727 16.7119 41.3184 16.9736 41.7637C17.2392 42.2051 17.4013 42.7168 17.4599 43.2988H15.9482C15.8818 42.7285 15.7119 42.3008 15.4384 42.0156C15.1689 41.7266 14.7431 41.582 14.1611 41.582C13.5087 41.582 13.0146 41.8242 12.6787 42.3086C12.3466 42.7891 12.1806 43.4824 12.1806 44.3887V45.0742C12.1806 45.9648 12.3349 46.6562 12.6435 47.1484C12.956 47.6406 13.4423 47.8867 14.1025 47.8867C14.5087 47.8867 14.8388 47.8242 15.0927 47.6992C15.3505 47.5703 15.5439 47.3848 15.6728 47.1426C15.8056 46.8965 15.8955 46.5859 15.9423 46.2109H17.4541ZM32.7737 47.7812V49H28.514H27.4007V40.4688H28.9183V47.7812H32.7737ZM47.5134 41.6934H44.8591V49H43.3473V41.6934H40.7223V40.4688H44.8591H47.5134V41.6934ZM63.7295 48.9238V49H62.1006L60.4073 45.7305H58.7842V49H57.2666V40.4688H60.2901C61.2745 40.4688 62.0342 40.6895 62.5694 41.1309C63.1084 41.5723 63.378 42.209 63.378 43.041C63.378 43.6035 63.2432 44.0801 62.9737 44.4707C62.7041 44.8613 62.3213 45.1621 61.8252 45.373L63.7295 48.9238ZM58.7842 44.5117H60.2959C60.8037 44.5117 61.1905 44.3848 61.4561 44.1309C61.7256 43.877 61.8604 43.5391 61.8604 43.1172C61.8604 42.668 61.7315 42.3184 61.4737 42.0684C61.2159 41.8184 60.8213 41.6934 60.2901 41.6934H58.7842V44.5117Z" fill="white"/>
<path d="M16.2505 65.7812V67H11.9908H10.8775V58.4688H12.3951V65.7812H16.2505ZM31.8609 62.9512C31.8609 63.8027 31.7124 64.543 31.4155 65.1719C31.1226 65.7969 30.7085 66.2773 30.1734 66.6133C29.6382 66.9492 29.0191 67.1172 28.3159 67.1172C27.6206 67.1172 27.0034 66.9492 26.4644 66.6133C25.9253 66.2773 25.5054 65.7949 25.2046 65.166C24.9038 64.5371 24.7534 63.7988 24.7534 62.9512V62.5234C24.7534 61.6758 24.9019 60.9375 25.1988 60.3086C25.4995 59.6797 25.9175 59.1973 26.4527 58.8613C26.9917 58.5215 27.6089 58.3516 28.3042 58.3516C29.0073 58.3516 29.6265 58.5195 30.1616 58.8555C30.7007 59.1914 31.1187 59.6738 31.4155 60.3027C31.7124 60.9316 31.8609 61.6719 31.8609 62.5234V62.9512ZM30.3374 62.5117C30.3374 61.5703 30.1597 60.8516 29.8042 60.3555C29.4527 59.8555 28.9527 59.6055 28.3042 59.6055C27.8863 59.6055 27.5249 59.7168 27.2202 59.9395C26.9155 60.1621 26.6812 60.4922 26.5171 60.9297C26.357 61.3633 26.2769 61.8906 26.2769 62.5117V62.9512C26.2769 63.5723 26.3589 64.1016 26.523 64.5391C26.687 64.9766 26.9214 65.3086 27.2261 65.5352C27.5347 65.7578 27.898 65.8691 28.3159 65.8691C28.9644 65.8691 29.4624 65.6191 29.8101 65.1191C30.1616 64.6191 30.3374 63.8965 30.3374 62.9512V62.5117ZM47.9165 65.8926C47.6665 66.2168 47.2876 66.502 46.7798 66.748C46.2759 66.9941 45.602 67.1172 44.7583 67.1172C44.0356 67.1172 43.3989 66.9551 42.8481 66.6309C42.3013 66.3066 41.8735 65.8359 41.5649 65.2188C41.2602 64.6016 41.1079 63.8672 41.1079 63.0156V62.459C41.1079 61.5957 41.2485 60.8574 41.5298 60.2441C41.811 59.627 42.2153 59.1582 42.7427 58.8379C43.27 58.5137 43.8989 58.3516 44.6294 58.3516C45.6333 58.3516 46.4028 58.5977 46.938 59.0898C47.477 59.5781 47.8013 60.2441 47.9106 61.0879H46.4223C46.2622 60.0762 45.6743 59.5703 44.6587 59.5703C43.9868 59.5703 43.4809 59.8184 43.1411 60.3145C42.8052 60.8066 42.6372 61.5176 42.6372 62.4473V63.0156C42.6372 63.6289 42.7231 64.1523 42.895 64.5859C43.0669 65.0156 43.3149 65.3418 43.6391 65.5645C43.9673 65.7871 44.3579 65.8984 44.811 65.8984C45.2563 65.8984 45.5981 65.8516 45.8364 65.7578C46.0786 65.6602 46.2661 65.541 46.3989 65.4004V63.7539H44.6645V62.6055H47.9165V65.8926ZM60.2221 63.332C59.3237 63.0547 58.6303 62.7129 58.142 62.3066C57.6537 61.9004 57.4096 61.3711 57.4096 60.7188C57.4096 60.2617 57.5366 59.8535 57.7905 59.4941C58.0483 59.1348 58.4077 58.8555 58.8686 58.6562C59.3295 58.4531 59.8569 58.3516 60.4506 58.3516C61.0717 58.3516 61.6147 58.4688 62.0795 58.7031C62.5483 58.9336 62.9077 59.248 63.1577 59.6465C63.4077 60.041 63.5327 60.4785 63.5327 60.959H62.0209C62.0209 60.5332 61.8862 60.1934 61.6166 59.9395C61.351 59.6855 60.9565 59.5586 60.433 59.5586C59.9409 59.5586 59.5659 59.666 59.308 59.8809C59.0541 60.0918 58.9272 60.3691 58.9272 60.7129C58.9272 61.0176 59.0717 61.2754 59.3608 61.4863C59.6498 61.6973 60.1049 61.8926 60.726 62.0723C61.3745 62.2637 61.9037 62.4824 62.3139 62.7285C62.728 62.9746 63.0366 63.2656 63.2397 63.6016C63.4428 63.9375 63.5444 64.3301 63.5444 64.7793C63.5444 65.2559 63.4194 65.6699 63.1694 66.0215C62.9194 66.373 62.5639 66.6445 62.103 66.8359C61.6459 67.0234 61.1108 67.1172 60.4975 67.1172C59.9272 67.1172 59.3842 67.0156 58.8686 66.8125C58.3569 66.6055 57.9409 66.2969 57.6205 65.8867C57.3041 65.4766 57.1459 64.9824 57.1459 64.4043H58.6635C58.6635 64.916 58.8295 65.2969 59.1616 65.5469C59.4975 65.793 59.9428 65.916 60.4975 65.916C60.9897 65.916 61.3666 65.8145 61.6284 65.6113C61.8901 65.4082 62.0209 65.1348 62.0209 64.791C62.0209 64.5566 61.9721 64.3613 61.8745 64.2051C61.7768 64.0449 61.5991 63.8965 61.3412 63.7598C61.0873 63.623 60.7143 63.4805 60.2221 63.332Z" fill="white"/>
<rect x="10" y="33" width="54" height="3" fill="white"/>
</svg>
