<svg width="72" height="72" viewBox="0 0 72 72" fill="none" xmlns="http://www.w3.org/2000/svg">
<path fill-rule="evenodd" clip-rule="evenodd" d="M40.5 4.00488C40.5 4.00488 42.72 11.955 42.72 18.4049C42.72 24.5849 38.67 29.595 32.49 29.595C26.28 29.595 21.5999 24.5849 21.5999 18.4049L21.6899 17.3249C15.6299 24.525 12 33.8548 12 43.9948C12 57.2548 22.7399 67.9948 36 67.9948C49.26 67.9948 60 57.2548 60 43.9948C60 27.8249 52.23 13.3949 40.5 4.00488ZM34.7103 41.4748C30.6303 42.3148 28.2001 44.9548 28.2001 48.7048C28.2001 52.7248 31.53 55.9648 35.67 55.9648C41.8203 55.9648 46.8 50.9848 46.8 44.8348C46.8 41.6248 46.3503 38.4748 45.42 35.4748C43.05 38.6848 38.8203 40.6348 34.7103 41.4748ZM18 43.9948C18 53.9248 26.0698 61.9948 36 61.9948C45.9303 61.9948 54 53.9248 54 43.9948C54 36.3148 52.02 28.9049 48.33 22.3048C46.74 30.1048 40.47 35.5948 32.49 35.5948C27.8101 35.5948 23.61 33.7348 20.58 30.7048C18.9002 34.8748 18 39.4048 18 43.9948Z" fill="#FF0022"/>
</svg>
